<svg width="236" height="236" viewBox="0 0 236 236" fill="none" xmlns="http://www.w3.org/2000/svg">
<path fill-rule="evenodd" clip-rule="evenodd" d="M118 0C52.8306 0 0 52.8306 0 118C0 183.169 52.8306 236 118 236C183.169 236 236 183.169 236 118C236 52.8306 183.169 0 118 0ZM56.6479 97.7325H83.3891V178.08H56.6479V97.7325ZM85.1508 72.8783C84.9772 65.0003 79.3437 59 70.1952 59C61.0473 59 55.0667 65.0003 55.0667 72.8783C55.0667 80.593 60.8708 86.7659 69.8481 86.7659H70.0192C79.3437 86.7659 85.1508 80.593 85.1508 72.8783ZM149.039 95.846C166.637 95.846 179.829 107.332 179.829 132.011L179.828 178.08H153.088V135.094C153.088 124.297 149.218 116.929 139.537 116.929C132.15 116.929 127.749 121.896 125.817 126.694C125.109 128.413 124.936 130.808 124.936 133.209V178.082H98.1912C98.1912 178.082 98.5438 105.274 98.1912 97.735H124.936V109.115C128.485 103.644 134.842 95.846 149.039 95.846Z" fill="white"/>
</svg>
