<svg width="209" height="209" viewBox="0 0 209 209" fill="none" xmlns="http://www.w3.org/2000/svg">
<path fill-rule="evenodd" clip-rule="evenodd" d="M104.5 0C46.7864 0 0 46.7864 0 104.5C0 162.214 46.7864 209 104.5 209C162.214 209 209 162.214 209 104.5C209 46.7864 162.214 0 104.5 0ZM101.59 88.555L101.37 84.9389C100.712 75.567 106.487 67.0067 115.624 63.6862C118.986 62.5054 124.688 62.3578 128.416 63.391C129.877 63.8338 132.655 65.3095 134.629 66.6379L138.21 69.0732L142.157 67.8188C144.351 67.1543 147.274 66.0475 148.59 65.3094C149.833 64.6454 150.929 64.2762 150.929 64.4978C150.929 65.7523 148.225 70.0324 145.959 72.3937C142.889 75.7146 143.766 76.0098 149.979 73.7957C153.707 72.5413 153.78 72.5413 153.049 73.9433C152.61 74.6814 150.344 77.2643 147.932 79.6255C143.839 83.6845 143.62 84.1273 143.62 87.5218C143.62 92.7612 141.134 103.683 138.649 109.66C134.044 120.877 124.176 132.462 114.308 138.292C100.42 146.484 81.9267 148.55 66.3575 143.753C61.1678 142.13 52.25 137.997 52.25 137.259C52.25 137.038 54.9544 136.743 58.2439 136.669C65.1148 136.521 71.9857 134.603 77.8333 131.208L81.7808 128.847L77.2486 127.297C70.8162 125.083 65.0417 119.991 63.58 115.195C63.1411 113.645 63.2874 113.571 67.3807 113.571L71.6204 113.497L68.0386 111.8C63.799 109.66 59.9251 106.044 58.0245 102.354C56.6355 99.6978 54.8817 92.9824 55.3933 92.466C55.5391 92.2448 57.0744 92.6871 58.8287 93.2776C63.8721 95.1224 64.5301 94.6796 61.6062 91.5803C56.1239 85.9721 54.4428 77.633 57.0744 69.7372L58.3171 66.1951L63.1411 70.9916C73.0094 80.6588 84.6315 86.415 97.9348 88.1122L101.59 88.555Z" fill="white"/>
</svg>
